<svg width="33" height="33" viewBox="0 0 33 33" fill="none" xmlns="http://www.w3.org/2000/svg">
<path d="M20.5312 28.6221C11.3667 28.6221 3.9375 21.1928 3.9375 12.0283C3.9375 7.32501 5.89469 3.07913 9.03856 0.0595703H8.125C3.91381 0.0595703 0.5 3.47338 0.5 7.68457V24.4346C0.5 28.6458 3.91381 32.0596 8.125 32.0596H24.875C29.0862 32.0596 32.5 28.6458 32.5 24.4346V23.521C29.4804 26.6649 25.2346 28.6221 20.5312 28.6221Z" fill="#1E88E5"/>
<path d="M24.875 0.0595703H9.03856C5.89469 3.07913 3.9375 7.32501 3.9375 12.0283C3.9375 15.8773 5.24838 19.4199 7.4475 22.2349C7.44013 24.5208 6.77831 25.7165 5.67556 26.5029C7.75894 27.0468 9.38831 26.425 10.9337 25.5664C13.6431 27.4907 16.955 28.6221 20.5312 28.6221C25.2346 28.6221 29.4804 26.6649 32.5 23.521V7.68457C32.5 3.47338 29.0862 0.0595703 24.875 0.0595703Z" fill="white"/>
<path d="M7.30401 18.2999V17.4118L11.9471 10.6175H7.26526V9.4707H13.5768V10.3588L8.93363 17.1531H13.6155V18.2999H7.30401ZM17.1118 18.4465C16.6921 18.4465 16.3127 18.3682 15.9736 18.2116C15.6346 18.055 15.3664 17.8272 15.1696 17.5283C14.9727 17.2293 14.8743 16.863 14.8743 16.429C14.8743 16.0553 14.9461 15.7478 15.0898 15.5064C15.2306 15.2679 15.4312 15.0702 15.6718 14.933C15.9161 14.7923 16.1891 14.6859 16.4909 14.614C16.7951 14.5418 17.1031 14.4871 17.4135 14.4502L18.3792 14.336C18.6263 14.3058 18.806 14.2562 18.9181 14.1872C19.0301 14.1182 19.0862 14.0061 19.0862 13.851V13.8208C19.0862 13.4443 18.9806 13.1526 18.7693 12.9456C18.5581 12.7387 18.244 12.6353 17.8273 12.6353C17.3933 12.6353 17.052 12.7308 16.8034 12.922C16.5549 13.1131 16.3831 13.325 16.2883 13.5578L15.0768 13.2819C15.2205 12.8795 15.431 12.554 15.7084 12.3054C15.9858 12.0568 16.3054 11.8758 16.6676 11.7622C17.0298 11.6486 17.4106 11.5919 17.8101 11.5919C18.0744 11.5919 18.3554 11.6228 18.6529 11.6846C18.9498 11.7461 19.2331 11.8608 19.4893 12.023C19.7494 12.1868 19.9628 12.4204 20.1294 12.7236C20.2961 13.0268 20.3795 13.4198 20.3795 13.9026V18.3H19.1206V17.3947H19.0689C18.9855 17.5614 18.8604 17.7253 18.6938 17.8861C18.5272 18.047 18.3129 18.1808 18.0515 18.2871C17.7901 18.3934 17.4767 18.4465 17.1118 18.4465ZM17.3919 17.4118C17.7483 17.4118 18.0537 17.3415 18.3081 17.2006C18.5624 17.0597 18.7564 16.8751 18.8901 16.6466C19.0237 16.4181 19.0906 16.1731 19.0906 15.9115V15.0579C19.0446 15.1039 18.9562 15.1463 18.8254 15.1851C18.6947 15.2239 18.5459 15.257 18.3793 15.2842L17.8921 15.3575L17.4955 15.4114C17.2455 15.443 17.0176 15.4962 16.8122 15.5709C16.6068 15.6456 16.4429 15.7527 16.3208 15.8921C16.1986 16.0315 16.1375 16.2161 16.1375 16.4461C16.1375 16.7651 16.2553 17.0059 16.491 17.1682C16.7267 17.3305 17.0269 17.4118 17.3919 17.4118ZM23.3844 9.4707V18.2999H22.0954V9.4707H23.3844ZM27.9068 18.4336C27.2859 18.4336 26.7441 18.2913 26.2814 18.0068C25.8188 17.7222 25.4594 17.3242 25.2036 16.8126C24.9478 16.301 24.8199 15.7032 24.8199 15.0191C24.8199 14.3323 24.9478 13.7316 25.2036 13.2171C25.4594 12.7026 25.8186 12.3031 26.2814 12.0186C26.7443 11.7341 27.2859 11.5918 27.9068 11.5918C28.5276 11.5918 29.0693 11.734 29.5321 12.0186C29.9949 12.3031 30.354 12.7026 30.6098 13.2171C30.8656 13.7315 30.9935 14.3323 30.9935 15.0191C30.9935 15.7032 30.8656 16.301 30.6098 16.8126C30.354 17.3241 29.9948 17.7222 29.5321 18.0068C29.0694 18.2913 28.5276 18.4336 27.9068 18.4336ZM27.9111 17.3515C28.3134 17.3515 28.6468 17.2451 28.9113 17.0325C29.1758 16.8198 29.3718 16.5367 29.4998 16.1832C29.6277 15.8297 29.6916 15.4403 29.6916 15.0149C29.6916 14.5924 29.6276 14.2037 29.4998 13.8487C29.3719 13.4937 29.1757 13.2085 28.9113 12.993C28.6468 12.7774 28.3134 12.6696 27.9111 12.6696C27.5058 12.6696 27.1702 12.7774 26.9044 12.993C26.6387 13.2085 26.4417 13.4938 26.3138 13.8487C26.1859 14.2036 26.122 14.5924 26.122 15.0149C26.122 15.4403 26.1859 15.8297 26.3138 16.1832C26.4417 16.5367 26.6386 16.8198 26.9044 17.0325C27.1703 17.2451 27.5058 17.3515 27.9111 17.3515Z" fill="#005BE0"/>
</svg>
